# xmcd
#
# Track frame offsets:
#	150
#	10897
#	20049
#	32622
#	42812
#	54047
#	65121
#	75305
#	86269
#	97376
#	107735
#	118913
#	128990
#	139921
#	154659
#	164887
#	176690
#	187733
#	197228
#	207111
#
# Disc length: 2901 seconds
#
# Revision: 1
# Processed by: cddbd v1.5.2PL0 Copyright (c) Steve Scherf et al.
# Submitted via: audiograbber 1.83.01
#
DISCID=130b5314
DTITLE=Wanda Jackson - The Famous Wanda Jackson CD10
DYEAR=2012
DGENRE=Country
TTITLE0=Makin' Believe
TTITLE1=Man We Had A Party
TTITLE2=May You Neve Be Alone
TTITLE3=Mean Mean Man
TTITLE4=Memory Maker
TTITLE5=Memory Mountain
TTITLE6=Memphis Tennessee
TTITLE7=Midnight
TTITLE8=Missing You
TTITLE9=Money Honey
TTITLE10=Morgen Ja Morgen (dutch)
TTITLE11=My Baby Left Me
TTITLE12=My Baby Walked Right Out On Me
TTITLE13=My Baby's Gone
TTITLE14=My Big Iron Skillet
TTITLE15=My Days Are Darker Than Your Nights
TTITLE16=My Destiny
TTITLE17=My First Day Without You
TTITLE18=My Heart Gets All The Breaks
TTITLE19=My Testimony
EXTD=
EXTT0=
EXTT1=
EXTT2=
EXTT3=
EXTT4=
EXTT5=
EXTT6=
EXTT7=
EXTT8=
EXTT9=
EXTT10=
EXTT11=
EXTT12=
EXTT13=
EXTT14=
EXTT15=
EXTT16=
EXTT17=
EXTT18=
EXTT19=
PLAYORDER=
